<?xml version="1.0" standalone="no"?>
<!DOCTYPE svg PUBLIC "-//W3C//DTD SVG 20010904//EN"
 "http://www.w3.org/TR/2001/REC-SVG-20010904/DTD/svg10.dtd">
<svg version="1.0" xmlns="http://www.w3.org/2000/svg"
 width="96" height="96" viewBox="0 0 500.000000 500.000000"
 preserveAspectRatio="xMidYMid meet">

<g transform="translate(0.000000,500.000000) scale(0.100000,-0.100000)"
fill="#000000" stroke="none">
<path d="M1655 4594 c-175 -14 -378 -53 -539 -105 -150 -48 -372 -157 -491
-241 -118 -83 -266 -232 -339 -340 l-59 -87 6 -168 c6 -194 26 -301 91 -498
205 -616 741 -1231 1461 -1676 177 -110 465 -257 620 -318 341 -134 687 -224
1010 -262 128 -15 474 -15 590 0 284 37 541 122 744 245 54 33 61 42 98 123
90 193 123 341 130 578 8 279 -26 460 -144 764 -137 354 -319 631 -613 934
-533 551 -1288 932 -2043 1033 -111 14 -427 25 -522 18z m856 -335 c461 -47
982 -305 1346 -669 395 -392 476 -814 195 -1007 -170 -116 -461 -135 -793 -53
-292 72 -563 206 -844 415 -206 153 -378 338 -493 531 -77 130 -105 224 -106
354 -1 98 1 110 31 172 67 142 216 233 423 257 107 12 126 12 241 0z"/>
<path d="M86 3509 c-53 -176 -61 -239 -60 -464 0 -189 3 -223 27 -338 100
-469 343 -905 727 -1301 525 -541 1255 -916 2000 -1027 203 -31 560 -33 743
-6 473 71 883 282 1129 580 38 46 33 43 -40 -25 -209 -195 -453 -308 -797
-371 -105 -19 -155 -22 -400 -22 -239 1 -300 4 -417 23 -395 63 -707 165
-1098 358 -432 213 -756 448 -1090 790 -224 230 -389 455 -524 714 -138 267
-216 567 -216 831 0 77 25 264 41 306 5 14 7 28 5 30 -3 3 -16 -33 -30 -78z"/>
</g>
</svg>
