<svg width="96" height="96" fill="currentColor" viewBox="0 0 495 495" xmlns="http://www.w3.org/2000/svg" preserveAspectRatio="xMidYMid meet" version="1.0">
  <g>
    <path
      d="m162.9078,35.61573c-17.5,1.4 -37.8,5.3 -53.9,10.5c-15,4.8 -37.2,15.7 -49.1,24.1c-11.8,8.3 -26.6,23.2 -33.9,34l-5.9,8.7l0.6,16.8c0.6,19.4 2.6,30.1 9.1,49.8c20.5,61.6 74.1,123.1 146.1,167.6c17.7,11 46.5,25.7 62,31.8c34.1,13.4 68.7,22.4 101,26.2c12.8,1.5 47.4,1.5 59,0c28.4,-3.7 54.1,-12.2 74.4,-24.5c5.4,-3.3 6.1,-4.2 9.8,-12.3c9,-19.3 12.3,-34.1 13,-57.8c0.8,-27.9 -2.6,-46 -14.4,-76.4c-13.7,-35.4 -31.9,-63.1 -61.3,-93.4c-53.3,-55.1 -128.8,-93.2 -204.3,-103.3c-11.1,-1.4 -42.7,-2.5 -52.2,-1.8zm85.6,33.5c46.1,4.7 98.2,30.5 134.6,66.9c39.5,39.2 47.6,81.4 19.5,100.7c-17,11.6 -46.1,13.5 -79.3,5.3c-29.2,-7.2 -56.3,-20.6 -84.4,-41.5c-20.6,-15.3 -37.8,-33.8 -49.3,-53.1c-7.7,-13 -10.5,-22.4 -10.6,-35.4c-0.1,-9.8 0.1,-11 3.1,-17.2c6.7,-14.2 21.6,-23.3 42.3,-25.7c10.7,-1.2 12.6,-1.2 24.1,0z" />
    <path
      d="m6.0078,144.11573c-5.3,17.6 -6.1,23.9 -6,46.4c0,18.9 0.3,22.3 2.7,33.8c10,46.9 34.3,90.5 72.7,130.1c52.5,54.1 125.5,91.6 200,102.7c20.3,3.1 56,3.3 74.3,0.6c47.3,-7.1 88.3,-28.2 112.9,-58c3.8,-4.6 3.3,-4.3 -4,2.5c-20.9,19.5 -45.3,30.8 -79.7,37.1c-10.5,1.9 -15.5,2.2 -40,2.2c-23.9,-0.1 -30,-0.4 -41.7,-2.3c-39.5,-6.3 -70.7,-16.5 -109.8,-35.8c-43.2,-21.3 -75.6,-44.8 -109,-79c-22.4,-23 -38.9,-45.5 -52.4,-71.4c-13.8,-26.7 -21.6,-56.7 -21.6,-83.1c0,-7.7 2.5,-26.4 4.1,-30.6c0.5,-1.4 0.7,-2.8 0.5,-3c-0.3,-0.3 -1.6,3.3 -3,7.8z" />
  </g>
</svg>